<?xml version="1.0" standalone="no"?>
<!DOCTYPE svg PUBLIC "-//W3C//DTD SVG 20010904//EN"
 "http://www.w3.org/TR/2001/REC-SVG-20010904/DTD/svg10.dtd">
<svg version="1.0" xmlns="http://www.w3.org/2000/svg"
 width="1024.000000pt" height="1024.000000pt" viewBox="0 0 1024.000000 1024.000000"
 preserveAspectRatio="xMidYMid meet">
<metadata>
Created by potrace 1.14, written by Peter Selinger 2001-2017
</metadata>
<g transform="translate(0.000000,1024.000000) scale(0.100000,-0.100000)"
fill="#ffffff" stroke="none">
<path d="M7085 9829 c175 -88 311 -161 385 -208 36 -22 81 -49 100 -60 100
-55 473 -340 615 -471 128 -118 286 -284 363 -380 120 -151 136 -172 172 -225
19 -27 40 -56 46 -63 7 -6 16 -21 19 -32 3 -11 10 -20 14 -20 5 0 14 -13 21
-30 7 -16 16 -30 21 -30 5 0 9 -9 9 -20 0 -11 4 -20 8 -20 4 0 18 -19 30 -42
13 -24 43 -79 67 -123 24 -44 44 -87 44 -97 1 -9 4 -18 9 -20 7 -3 39 -66 101
-200 17 -37 31 -76 31 -87 0 -12 5 -21 10 -21 6 0 10 -8 10 -17 0 -21 23 -90
33 -99 4 -4 7 -22 7 -40 0 -18 4 -34 10 -36 5 -1 11 -22 12 -46 1 -24 5 -45
10 -48 4 -3 8 -20 8 -39 0 -19 5 -37 10 -40 6 -3 10 -24 10 -46 0 -21 5 -39
10 -39 6 0 10 -28 10 -63 0 -35 3 -67 7 -71 8 -7 4 -86 -4 -99 -3 -5 -7 -46
-8 -90 -2 -45 -1 -76 2 -69 2 6 10 12 16 12 7 -1 3 -8 -9 -18 -11 -10 -29 -30
-38 -45 -17 -25 -17 -29 -2 -52 23 -34 20 -44 -11 -42 -24 2 -28 -1 -25 -22 1
-14 -7 -34 -19 -47 -12 -13 -19 -30 -16 -38 7 -18 37 -22 37 -6 0 6 7 10 15
10 25 0 17 -14 -18 -30 -25 -12 -31 -20 -29 -40 2 -17 -5 -33 -22 -47 -25 -22
-30 -39 -41 -146 -4 -32 -15 -74 -26 -92 -11 -18 -18 -37 -17 -42 2 -4 -7 -19
-19 -33 -13 -13 -23 -30 -23 -37 0 -7 -6 -13 -14 -13 -11 0 -13 -9 -9 -35 4
-22 1 -41 -8 -51 -7 -9 -12 -31 -10 -50 1 -19 -2 -34 -8 -34 -6 0 -11 -5 -11
-11 0 -7 -8 -18 -17 -26 -16 -13 -16 -14 10 -10 21 3 27 0 27 -14 0 -9 2 -24
5 -32 4 -9 -5 -17 -27 -24 -19 -7 -25 -11 -14 -12 13 -1 16 -6 11 -18 -4 -10
-10 -27 -13 -38 -3 -11 -14 -33 -24 -50 l-18 -30 -1 35 -1 35 -10 -27 c-5 -16
-16 -28 -24 -28 -16 0 -19 -16 -4 -25 17 -11 11 -54 -10 -72 -11 -10 -20 -23
-20 -29 0 -7 -8 -15 -17 -18 -10 -4 -13 -10 -8 -14 10 -7 35 -48 35 -57 0 -3
-7 -5 -15 -5 -8 0 -17 11 -21 25 -8 34 -27 18 -43 -37 -7 -24 -17 -48 -23 -55
-6 -7 -5 -14 2 -18 16 -10 12 -81 -5 -95 -8 -7 -18 -30 -21 -52 -5 -27 -13
-42 -28 -48 -22 -8 -37 -22 -84 -80 -32 -38 -49 -129 -28 -150 7 -7 6 -10 -2
-10 -7 0 -12 -13 -12 -28 0 -32 -16 -52 -41 -52 -25 0 -44 -29 -41 -61 3 -22
-2 -31 -20 -39 -13 -5 -30 -14 -38 -20 -8 -5 -27 -14 -42 -20 -20 -7 -28 -16
-28 -34 0 -14 -4 -28 -10 -31 -5 -3 -10 -14 -10 -24 0 -28 -24 -71 -39 -71
-24 0 -91 -33 -91 -45 0 -6 -11 -22 -25 -35 -14 -13 -28 -38 -31 -57 -4 -19
-12 -33 -21 -33 -8 0 -11 -4 -8 -10 3 -5 2 -10 -3 -10 -5 0 -31 -22 -58 -50
-27 -27 -56 -50 -66 -50 -10 0 -20 -10 -24 -25 -3 -14 -10 -25 -15 -25 -5 0
-9 -7 -9 -15 0 -8 -7 -15 -15 -15 -8 0 -19 -9 -25 -20 -7 -13 -21 -20 -43 -21
-18 0 -26 -3 -19 -6 27 -11 -1 -53 -36 -53 -23 0 -62 -52 -43 -58 6 -2 9 -8 6
-13 -3 -5 -15 -3 -26 4 -16 10 -21 9 -29 -3 -5 -8 -8 -20 -6 -26 3 -7 -3 -20
-12 -30 -9 -11 -23 -32 -31 -47 -11 -21 -21 -27 -40 -26 -65 5 -81 -7 -85 -61
-1 -8 -10 -16 -21 -18 -11 -2 -27 -17 -35 -35 -10 -21 -26 -35 -45 -41 -16 -4
-38 -12 -47 -17 -10 -5 -47 -9 -83 -9 -37 0 -65 -4 -65 -10 0 -5 7 -10 15 -10
14 0 19 -14 18 -48 -1 -7 5 -11 12 -8 9 3 12 0 8 -9 -3 -8 -9 -12 -14 -9 -16
9 -33 -7 -18 -17 12 -8 12 -10 0 -18 -8 -5 -20 -7 -27 -4 -7 2 -17 -5 -24 -16
-6 -13 -21 -21 -35 -21 -14 0 -25 -3 -25 -8 0 -4 -9 -13 -21 -20 -25 -16 -59
-7 -60 16 0 10 -3 12 -5 5 -3 -7 0 -21 6 -32 9 -17 8 -21 -5 -21 -8 0 -15 4
-15 10 0 6 -10 5 -25 -2 -14 -6 -25 -15 -25 -20 0 -4 -11 -8 -23 -8 -13 0 -32
-9 -42 -20 -21 -24 -40 -26 -31 -5 8 21 -14 18 -44 -5 -27 -21 -65 -26 -75
-10 -3 6 -17 10 -31 10 -19 0 -24 -5 -24 -24 0 -22 -4 -24 -64 -28 -42 -2 -71
-10 -84 -21 -10 -9 -23 -17 -28 -17 -5 0 -2 5 6 10 11 7 6 10 -22 10 -20 0
-40 -5 -43 -10 -3 -6 -17 -7 -29 -4 -26 6 -40 -14 -25 -37 12 -19 11 -39 -1
-39 -5 0 -10 6 -10 14 0 29 -31 26 -57 -5 -18 -21 -29 -27 -36 -20 -16 16 -47
13 -47 -5 0 -10 -7 -14 -22 -13 -13 2 -28 0 -34 -4 -7 -4 -15 0 -18 9 -6 15
-8 15 -31 0 -13 -9 -33 -16 -43 -16 -12 0 -25 -15 -38 -42 l-19 -43 -53 2
c-28 1 -52 -2 -52 -7 0 -6 7 -10 15 -10 29 0 14 -15 -37 -38 -43 -19 -56 -21
-74 -11 -26 13 -55 2 -33 -13 9 -6 5 -7 -12 -3 -25 6 -59 -14 -59 -34 0 -10
-51 -33 -58 -26 -3 3 0 5 6 5 7 0 12 5 12 11 0 6 -8 8 -17 6 -10 -3 -34 -8
-54 -11 -25 -5 -38 -13 -42 -26 -6 -22 -28 -26 -57 -10 -13 7 -21 7 -25 0 -3
-5 -19 -10 -35 -10 -16 0 -32 -5 -35 -10 -3 -5 -15 -10 -26 -10 -10 0 -19 -4
-19 -10 0 -5 -11 -10 -24 -10 -13 0 -26 -3 -28 -7 -7 -17 -89 -53 -121 -53
-25 0 -42 -9 -67 -35 -36 -37 -60 -45 -60 -20 0 21 -24 19 -45 -5 -10 -11 -24
-20 -30 -20 -7 0 -15 -7 -19 -15 -3 -8 -12 -12 -20 -9 -19 7 -56 -13 -56 -30
0 -17 -27 -29 -35 -16 -4 6 -1 10 4 10 6 0 11 5 11 12 0 9 -3 9 -12 0 -7 -7
-21 -12 -32 -12 -11 0 -30 -10 -44 -22 -19 -19 -34 -23 -74 -21 -46 2 -55 -1
-96 -37 -25 -22 -51 -40 -59 -40 -8 0 -32 -9 -55 -21 -22 -11 -49 -18 -59 -16
-14 4 -19 0 -19 -13 0 -11 -4 -22 -10 -25 -5 -3 -10 0 -10 7 0 10 -3 9 -10 -2
-5 -9 -5 -19 2 -27 8 -10 4 -18 -16 -34 -14 -11 -33 -27 -40 -35 -21 -20 -36
-17 -36 7 0 12 8 23 20 26 11 3 20 13 19 22 0 10 -2 11 -6 4 -2 -7 -17 -13
-32 -13 -15 0 -33 -6 -40 -12 -10 -11 -14 -10 -22 4 -14 25 -46 22 -53 -4 -4
-18 -8 -20 -18 -10 -16 16 -28 15 -28 -2 0 -17 -29 -11 -75 14 -16 9 -50 22
-75 30 -25 7 -49 17 -55 22 -5 4 -17 8 -27 8 -10 0 -18 5 -18 10 0 6 -6 10
-14 10 -13 0 -84 33 -226 104 -168 84 -440 258 -440 282 0 30 144 227 229 314
249 254 470 382 856 499 70 21 289 71 395 90 63 12 140 26 170 31 253 46 596
114 735 147 578 134 1100 362 1478 646 179 134 432 390 571 577 96 130 233
389 295 560 7 19 17 44 22 55 14 34 41 118 50 155 4 19 12 53 18 75 91 342
100 769 22 1080 -9 37 -14 57 -41 150 -5 19 -14 50 -19 68 -13 45 -24 78 -64
188 -35 96 -172 380 -208 431 -11 14 -19 29 -19 32 0 9 -134 206 -156 231 -11
12 -29 35 -42 53 -53 75 -336 365 -407 417 -22 17 -47 37 -55 45 -20 20 -84
69 -145 110 -27 19 -59 42 -69 52 -11 10 -26 18 -33 18 -7 0 -13 5 -13 10 0 6
-5 10 -11 10 -5 0 -37 18 -69 40 -32 22 -64 40 -69 40 -6 0 -11 4 -11 9 0 5
-8 11 -17 14 -10 4 -40 20 -68 36 -44 27 -246 128 -300 151 -11 4 -41 17 -67
29 -26 12 -52 21 -58 21 -6 0 -18 4 -28 9 -21 12 -113 45 -167 62 -22 6 -49
15 -60 19 -35 14 -167 48 -250 66 -44 9 -98 20 -120 25 -310 67 -867 77 -1185
22 -47 -8 -101 -17 -120 -19 -49 -7 -190 -40 -315 -74 -38 -10 -81 -22 -95
-25 -14 -4 -34 -10 -45 -15 -11 -4 -51 -17 -90 -29 -38 -12 -79 -26 -90 -31
-11 -4 -47 -18 -80 -31 -211 -79 -511 -240 -750 -403 -164 -111 -388 -298
-541 -451 -82 -82 -161 -163 -175 -180 -220 -269 -326 -418 -449 -630 -49 -84
-210 -406 -210 -419 0 -4 -9 -25 -19 -49 -112 -246 -225 -667 -261 -972 -6
-55 -16 -130 -21 -167 -12 -89 -12 -425 1 -546 30 -288 31 -298 72 -492 121
-582 387 -1143 762 -1610 33 -41 63 -77 66 -80 3 -3 43 -48 89 -100 92 -104
265 -277 357 -357 276 -239 334 -284 528 -411 229 -149 266 -172 272 -172 3 0
18 -8 32 -19 51 -35 449 -241 466 -241 3 0 29 -11 58 -24 119 -54 166 -74 223
-95 33 -13 70 -27 83 -32 12 -5 32 -13 45 -18 46 -19 133 -50 167 -60 19 -6
62 -19 95 -30 248 -79 482 -141 750 -197 96 -20 89 -19 245 -43 442 -69 637
-85 1080 -85 226 -1 380 3 445 12 183 23 249 33 360 54 111 20 167 34 318 77
17 6 64 19 102 29 108 30 239 74 250 84 5 4 15 8 22 8 18 0 246 98 338 145
113 59 210 112 284 157 34 21 65 38 67 38 9 0 192 125 283 194 220 165 441
392 554 566 19 30 49 69 67 85 27 26 39 30 85 29 l54 0 60 135 c257 580 398
1180 431 1831 9 179 5 568 -6 557 -2 -1 -8 -72 -14 -157 -13 -187 -31 -331
-55 -445 -12 -58 -47 -200 -55 -225 -4 -14 -13 -45 -20 -70 -25 -88 -52 -168
-82 -240 -6 -14 -14 -34 -18 -45 -9 -23 -25 -61 -70 -164 -34 -78 -140 -278
-171 -323 -11 -14 -19 -29 -19 -32 0 -8 -120 -188 -130 -196 -3 -3 -17 -21
-30 -40 -69 -99 -252 -311 -375 -436 -138 -140 -217 -208 -341 -299 -49 -35
-94 -68 -99 -73 -18 -15 -254 -172 -259 -172 -2 0 -33 -17 -67 -38 -59 -36
-351 -182 -364 -182 -3 0 -27 -9 -53 -21 -26 -12 -57 -25 -69 -30 -13 -5 -33
-13 -45 -19 -72 -30 -367 -121 -488 -149 -437 -103 -1038 -132 -1465 -70 -142
21 -201 31 -236 40 -20 5 -46 9 -58 9 -11 0 -21 4 -21 9 0 17 143 139 241 206
52 36 104 73 117 82 13 9 32 22 42 27 10 6 67 40 127 75 103 60 467 245 563
285 25 11 73 32 108 48 34 15 65 28 67 28 2 0 28 11 57 24 29 13 76 34 103 46
28 12 104 48 170 80 208 100 173 93 395 79 320 -19 410 -2 688 132 335 162
553 318 827 593 167 167 207 210 265 286 19 25 38 47 41 50 16 14 205 299 247
371 204 356 354 789 422 1218 31 196 46 255 61 246 13 -9 12 -2 -21 167 -202
1022 -697 1936 -1441 2663 -375 366 -755 642 -1229 892 -151 80 -477 225 -500
222 -3 0 49 -27 115 -60z m-1855 -1004 c342 -90 557 -290 724 -675 39 -89 64
-146 92 -208 13 -29 24 -55 24 -57 0 -2 11 -29 25 -60 14 -30 36 -79 49 -108
13 -29 74 -167 136 -307 130 -294 151 -343 209 -472 11 -27 30 -68 41 -93 11
-25 30 -66 41 -92 12 -27 32 -73 46 -103 55 -121 144 -324 211 -480 38 -91 90
-208 115 -260 85 -182 127 -277 127 -290 0 -6 4 -18 10 -28 5 -9 16 -39 25
-66 16 -48 15 -49 -11 -90 -182 -277 -509 -514 -964 -697 -191 -77 -293 -109
-482 -154 -493 -117 -880 -155 -1653 -164 l-530 -6 -27 -56 c-14 -31 -70 -164
-123 -295 -120 -295 -182 -442 -240 -569 -37 -82 -52 -116 -81 -190 -28 -73
-41 -95 -55 -95 -16 0 -138 108 -280 250 -161 161 -152 151 -319 361 -100 127
-118 154 -111 172 5 12 21 48 35 79 65 144 76 169 76 173 0 3 9 27 21 53 20
46 30 68 48 115 5 12 19 45 31 72 12 28 26 59 31 70 4 11 26 59 48 108 23 48
41 89 41 92 0 3 25 57 56 121 30 64 59 126 64 138 4 11 40 95 80 186 39 91 78
179 85 195 13 30 33 76 73 165 11 25 34 79 52 120 18 41 41 95 52 120 11 25
29 64 39 88 11 23 28 63 40 90 12 26 27 61 34 77 15 32 77 176 257 595 60 140
115 269 122 285 8 17 24 53 36 80 12 28 28 64 36 80 7 17 67 157 133 312 66
155 141 325 166 378 25 53 45 99 45 101 0 2 14 33 30 69 17 36 30 68 30 70 0
3 10 27 21 53 12 26 28 63 36 82 94 223 248 419 416 528 86 56 250 123 342
140 33 7 69 14 80 16 44 11 282 -3 345 -19z m1518 -609 c34 -79 76 -123 151
-160 36 -18 67 -39 69 -48 2 -10 -17 -24 -60 -42 -35 -15 -76 -39 -92 -54 -27
-26 -86 -134 -86 -159 0 -7 -7 -10 -15 -7 -8 4 -15 14 -15 24 0 29 -77 138
-120 169 -23 16 -61 37 -85 47 -52 19 -50 34 8 60 56 25 146 119 176 182 13
27 29 48 35 46 6 -3 21 -28 34 -58z m-3368 -193 c0 -15 89 -93 106 -93 24 0
15 -28 -10 -34 -37 -9 -80 -50 -101 -95 -20 -46 -27 -45 -51 6 -17 35 -85 93
-109 93 -7 0 -15 6 -18 14 -4 9 12 23 44 40 29 17 61 45 80 72 29 42 32 44 45
27 7 -10 14 -23 14 -30z m-450 -337 c0 -32 36 -99 81 -150 33 -37 94 -75 142
-90 32 -10 17 -33 -37 -60 -72 -35 -115 -82 -156 -166 -19 -39 -38 -70 -42
-70 -5 0 -23 30 -41 68 -39 81 -98 142 -177 179 -32 15 -59 33 -59 38 -1 6 25
20 57 33 71 27 132 85 170 162 16 31 32 62 36 68 12 20 26 13 26 -12z m4250
-311 c44 -81 82 -119 157 -157 35 -17 63 -35 63 -39 0 -5 -29 -23 -65 -40 -70
-34 -132 -94 -159 -157 -38 -83 -55 -92 -75 -35 -20 54 -78 140 -108 160 -15
10 -49 27 -77 39 -28 11 -51 26 -51 34 0 8 29 29 65 48 80 42 108 68 139 129
30 57 62 96 72 86 4 -5 22 -35 39 -68z m-4756 -329 c34 -80 109 -154 194 -192
34 -15 59 -31 56 -36 -3 -5 -27 -18 -52 -30 -115 -53 -172 -114 -207 -219 -16
-47 -40 -65 -50 -36 -58 167 -108 221 -244 262 -19 6 -36 15 -38 21 -2 5 29
26 68 44 87 43 150 108 175 183 22 68 21 67 48 67 19 0 28 -12 50 -64z m6876
-166 c0 -5 -4 -10 -10 -10 -5 0 -10 5 -10 10 0 6 5 10 10 10 6 0 10 -4 10 -10z
m0 -80 c0 -5 -2 -10 -4 -10 -3 0 -8 5 -11 10 -3 6 -1 10 4 10 6 0 11 -4 11
-10z m-20 -20 c0 -5 -2 -10 -4 -10 -3 0 -8 5 -11 10 -3 6 -1 10 4 10 6 0 11
-4 11 -10z m-1795 -353 c17 -22 50 -57 75 -75 25 -19 45 -39 45 -44 0 -5 -18
-19 -40 -31 -22 -13 -55 -45 -73 -72 -40 -59 -59 -67 -68 -28 -9 38 -50 81
-101 104 -24 11 -43 25 -43 32 0 6 27 27 59 45 39 23 65 47 80 73 12 21 25 39
29 38 4 0 21 -19 37 -42z m-5275 -268 c30 -58 96 -120 163 -152 31 -16 57 -30
57 -32 0 -3 -34 -27 -75 -55 -78 -53 -126 -107 -145 -166 -15 -44 -33 -43 -50
4 -29 82 -88 142 -182 186 -21 9 -38 21 -38 26 0 5 25 21 55 35 59 29 135 104
162 159 9 20 20 36 25 36 4 0 17 -18 28 -41z m6820 -174 c0 -8 -4 -15 -10 -15
-5 0 -10 7 -10 15 0 8 5 15 10 15 6 0 10 -7 10 -15z m-40 -225 c0 -5 -7 -10
-15 -10 -8 0 -15 5 -15 10 0 6 7 10 15 10 8 0 15 -4 15 -10z m-192 -352 c-2
-13 -7 -23 -13 -23 -5 0 -11 10 -13 23 -2 15 2 22 13 22 11 0 15 -7 13 -22z
m-1186 -1540 c-17 -8 -26 -8 -34 0 -9 9 -4 12 23 11 32 0 33 -1 11 -11z m-715
-454 c-3 -3 -12 -4 -19 -1 -8 3 -5 6 6 6 11 1 17 -2 13 -5z m-127 -34 c0 -5
-5 -10 -11 -10 -5 0 -7 5 -4 10 3 6 8 10 11 10 2 0 4 -4 4 -10z m-30 -24 c0
-3 -4 -8 -10 -11 -5 -3 -10 -1 -10 4 0 6 5 11 10 11 6 0 10 -2 10 -4z m-257
-28 c3 -10 7 -10 20 1 15 12 17 11 17 -13 0 -14 -3 -26 -8 -26 -13 0 -52 30
-52 41 0 13 18 11 23 -3z m-50 -62 c4 -10 1 -13 -9 -9 -15 6 -19 23 -5 23 5 0
11 -7 14 -14z m-943 -341 c0 -8 -7 -15 -15 -15 -8 0 -15 7 -15 15 0 8 7 15 15
15 8 0 15 -7 15 -15z m-62 -32 c-10 -2 -26 -2 -35 0 -10 3 -2 5 17 5 19 0 27
-2 18 -5z m-1088 -462 c0 -8 -6 -11 -16 -7 -9 3 -20 6 -25 6 -5 0 -9 3 -9 8 0
4 11 7 25 7 14 0 25 -6 25 -14z"/>
<path d="M4976 7992 c-16 -19 -106 -221 -213 -482 -55 -134 -98 -237 -134
-316 -10 -22 -27 -65 -39 -94 -20 -51 -30 -74 -86 -198 -13 -29 -24 -55 -24
-57 0 -2 -11 -28 -24 -57 -13 -29 -40 -91 -59 -138 -106 -260 -129 -314 -172
-410 -26 -58 -60 -139 -77 -180 -16 -41 -37 -91 -45 -110 -8 -19 -21 -48 -28
-65 -7 -16 -22 -51 -33 -76 -12 -25 -30 -70 -42 -99 -12 -29 -29 -72 -40 -94
-90 -200 -212 -512 -208 -533 3 -17 38 -18 778 -18 l775 0 100 28 c323 91 504
235 574 456 14 44 14 172 0 225 -23 90 -33 121 -39 131 -4 6 -14 28 -22 50 -9
22 -30 69 -46 105 -61 132 -232 519 -232 524 0 2 -15 37 -34 78 -55 118 -86
188 -86 193 0 2 -13 34 -30 70 -16 36 -30 68 -30 70 0 2 -13 34 -30 70 -16 36
-30 68 -30 70 0 2 -11 28 -24 57 -13 29 -65 148 -114 263 -98 229 -151 351
-188 433 -13 29 -24 55 -24 58 0 11 -41 64 -49 64 -4 0 -15 -8 -25 -18z m68
-1759 c54 -127 103 -177 249 -254 58 -30 68 -39 52 -44 -174 -57 -276 -153
-320 -300 -16 -52 -35 -51 -50 2 -36 123 -169 253 -291 285 -24 7 -44 17 -44
23 0 6 33 27 73 47 41 20 102 60 136 88 61 51 76 74 127 198 9 23 20 42 24 42
4 0 24 -39 44 -87z"/>
<path d="M10172 5900 c0 -14 2 -19 5 -12 2 6 2 18 0 25 -3 6 -5 1 -5 -13z"/>
<path d="M8130 4493 c0 -13 5 -23 10 -23 13 0 13 11 0 30 -8 12 -10 11 -10 -7z"/>
<path d="M8110 4441 c0 -25 6 -27 13 -6 4 8 2 17 -3 20 -6 4 -10 -3 -10 -14z"/>
<path d="M7880 4225 c0 -8 5 -15 10 -15 6 0 10 7 10 15 0 8 -4 15 -10 15 -5 0
-10 -7 -10 -15z"/>
<path d="M7660 4010 c0 -19 3 -21 12 -12 9 9 9 15 0 24 -9 9 -12 7 -12 -12z"/>
<path d="M7637 3966 c-3 -8 1 -22 8 -33 13 -17 14 -16 15 9 0 30 -15 46 -23
24z"/>
<path d="M6836 3463 c-11 -11 -6 -23 9 -23 8 0 15 4 15 9 0 13 -16 22 -24 14z"/>
<path d="M6351 3304 c0 -11 3 -14 6 -6 3 7 2 16 -1 19 -3 4 -6 -2 -5 -13z"/>
<path d="M840 2327 c8 -7 16 -19 18 -27 2 -8 36 -60 75 -115 690 -972 1640
-1651 2782 -1985 284 -83 539 -131 936 -175 130 -15 465 -24 629 -17 l185 7
-340 7 c-387 8 -588 20 -563 32 14 6 15 11 5 26 -9 15 -23 19 -62 19 -27 -1
-63 6 -80 15 -36 19 -42 20 -48 4 -2 -7 -2 -3 0 10 2 16 -1 22 -16 22 -11 0
-21 4 -23 10 -3 9 -34 18 -70 19 -11 1 -18 11 -20 28 -3 25 -8 28 -42 31 -28
2 -40 9 -43 23 -4 14 -14 19 -39 19 -18 0 -36 5 -39 10 -3 6 -20 10 -37 10
-21 0 -31 -6 -35 -20 -6 -23 -19 -25 -56 -7 -21 9 -27 19 -27 44 0 28 -6 34
-52 57 -29 15 -69 26 -91 26 -44 0 -77 15 -77 34 0 21 -31 28 -50 11 -9 -8
-22 -15 -29 -15 -17 0 -60 52 -61 73 0 14 -5 17 -22 11 -13 -3 -24 -11 -26
-15 -8 -19 -32 -7 -69 35 -36 40 -44 45 -90 48 -35 2 -49 7 -46 15 6 16 20 17
25 1 3 -7 12 -9 24 -4 18 7 18 8 2 20 -23 17 -23 23 0 29 9 3 1 4 -19 3 -26
-1 -35 -5 -31 -15 3 -9 -1 -12 -14 -9 -14 3 -18 11 -16 31 3 28 -22 40 -30 15
-7 -19 -63 9 -76 38 -12 25 -47 33 -55 12 -4 -8 -8 -4 -13 10 -4 14 -12 21
-20 18 -7 -3 -27 2 -43 10 -17 8 -43 17 -58 18 -15 2 -31 4 -35 5 -5 0 -8 8
-8 16 0 9 -28 42 -62 75 -58 56 -80 71 -77 53 6 -36 -25 -47 -36 -13 -5 16
-15 20 -46 20 -26 0 -42 5 -45 15 -4 8 -11 15 -16 15 -24 0 -66 42 -72 72 -8
39 -33 68 -59 68 -16 0 -17 2 -7 15 7 9 10 19 6 22 -4 4 -11 1 -15 -6 -7 -10
-21 -12 -54 -7 -30 5 -48 3 -52 -5 -4 -6 -10 -7 -14 -3 -3 5 -29 30 -58 57
-38 34 -60 47 -82 47 -16 0 -33 5 -36 10 -3 6 -17 10 -31 10 -19 0 -24 5 -24
25 0 19 -10 29 -47 47 -27 12 -55 23 -63 23 -8 0 -14 8 -14 18 1 12 -6 17 -22
17 -14 0 -27 7 -30 15 -4 8 -10 13 -15 10 -11 -8 -49 17 -49 32 0 7 -8 17 -19
22 -10 6 -29 33 -42 61 -15 31 -30 50 -41 50 -10 0 -18 3 -18 8 0 4 -25 18
-55 31 -31 13 -59 29 -63 35 -8 13 -57 36 -77 36 -7 0 -26 5 -42 12 -15 6 -34
10 -40 9 -16 -2 -17 26 -1 31 6 2 9 12 5 21 -3 9 -13 14 -21 11 -8 -3 -17 -1
-20 5 -4 6 -13 8 -21 4 -9 -3 -15 1 -15 10 0 10 -13 18 -35 23 -26 4 -35 11
-35 25 0 11 -8 23 -17 26 -10 4 -23 13 -29 21 -6 8 -16 12 -22 8 -6 -3 -26 12
-45 34 -24 28 -39 38 -51 34 -20 -8 -58 24 -49 40 3 6 3 8 -2 4 -11 -11 -35
11 -35 31 0 9 -29 46 -64 83 -35 37 -61 69 -58 72 3 3 -1 6 -9 6 -13 0 -79 67
-79 80 0 15 -72 80 -88 80 -15 -1 -15 -2 -2 -13z m3010 -2088 c0 -6 -4 -7 -10
-4 -5 3 -10 11 -10 16 0 6 5 7 10 4 6 -3 10 -11 10 -16z"/>
<path d="M1200 1970 c0 -5 7 -10 16 -10 8 0 12 5 9 10 -3 6 -10 10 -16 10 -5
0 -9 -4 -9 -10z"/>
<path d="M9089 1903 c-13 -16 -12 -17 4 -4 16 13 21 21 13 21 -2 0 -10 -8 -17
-17z"/>
<path d="M9014 1818 c-33 -35 -73 -79 -88 -98 -16 -19 -96 -104 -179 -189
-148 -150 -263 -254 -445 -405 -24 -20 -40 -36 -35 -36 22 0 299 245 468 415
158 158 356 375 343 375 -2 0 -31 -28 -64 -62z"/>
<path d="M8210 1049 l-35 -30 38 26 c33 24 43 35 34 35 -1 0 -18 -14 -37 -31z"/>
<path d="M8135 994 l-30 -26 33 22 c17 12 32 23 32 26 0 7 -4 5 -35 -22z"/>
<path d="M7977 886 c-59 -41 -73 -55 -29 -30 33 19 91 63 82 63 -3 0 -27 -15
-53 -33z"/>
<path d="M7811 780 c-34 -22 -63 -40 -65 -40 -2 0 -33 -17 -67 -38 -98 -59
-464 -236 -604 -292 -11 -4 -41 -17 -67 -29 -26 -12 -54 -21 -62 -21 -8 0 -18
-5 -21 -10 -3 -6 -15 -10 -26 -10 -10 0 -27 -4 -37 -9 -29 -15 -65 -29 -107
-42 -22 -7 -44 -17 -50 -21 -5 -4 -17 -8 -27 -8 -10 0 -26 -4 -36 -9 -9 -5
-37 -14 -62 -21 -25 -7 -55 -16 -68 -21 -13 -5 -34 -9 -47 -9 -13 0 -27 -5
-30 -10 -3 -6 -21 -10 -40 -10 -19 0 -36 -4 -39 -9 -3 -5 -23 -11 -43 -14 -21
-3 -60 -11 -88 -17 -57 -13 -124 -25 -210 -40 -33 -6 -85 -15 -115 -21 -81
-15 -191 -28 -313 -38 -59 -5 -111 -12 -115 -16 -10 -11 169 2 338 25 591 79
1157 259 1676 533 228 121 420 237 391 237 -2 0 -32 -18 -66 -40z"/>
<path d="M4648 63 c7 -3 16 -2 19 1 4 3 -2 6 -13 5 -11 0 -14 -3 -6 -6z"/>
</g>
</svg>
